#!OML:ASF I:\Actors\actors\Patient Classification 2\Patient 1\Session 1\actor1.ASF
:FULLY-SPECIFIED
:DEGREES
511
root -1.31037 17.8632 6.523 9.47609 -55.0482 -13.6862
lowerback 6.75601 -7.52973 5.3633
upperback -3.38548 -9.27986 6.4545
thorax -7.11049 -4.70094 5.05225
lowerneck -16.206 13.5573 16.1508
upperneck 16.0313 17.0498 -11.1825
head 10.1368 7.8834 -3.85269
rclavicle -3.05134e-014 -3.97569e-014
rhumerus -15.7289 -21.6053 6.48764
rradius 138.272
rwrist -36.5857
rhand -3.258 -33.7831
rfingers 7.12502
rthumb 22.4663 -62.4963
lclavicle -3.05134e-014 -3.97569e-014
lhumerus 1.5222 60.8577 49.7716
lradius 39.45
lwrist 27.7485
lhand -13.4676 -24.6835
lfingers 7.12502
lthumb 12.6424 4.91393
rfemur 12.0182 13.7417 23.6626
rtibia -19.5308
rfoot 16.318 5.13344
rtoes 24.1156
lfemur 25.0013 9.9749 -12.8259
ltibia -7.56694
lfoot -26.8496 32.5926
ltoes 8.61904
512
root -1.30625 17.8667 6.52197 9.26 -54.5866 -13.5353
lowerback 6.75748 -7.47286 5.23723
upperback -3.41749 -9.21333 6.42871
thorax -7.13164 -4.66238 5.08617
lowerneck -16.0048 13.4129 16.1585
upperneck 16.257 16.9367 -11.342
head 10.1831 7.82278 -3.94159
rclavicle 4.02539e-014 -6.83819e-014
rhumerus -15.4176 -21.0407 5.76032
rradius 138.446
rwrist -37.0427
rhand -1.63184 -33.4629
rfingers 7.12502
rthumb 24.0265 -61.979
lclavicle 4.02539e-014 -6.83819e-014
lhumerus 2.98318 60.2136 51.3506
lradius 39.5589
lwrist 28.1623
lhand -13.707 -24.0092
lfingers 7.12502
lthumb 12.4116 5.6023
rfemur 12.0897 13.5615 23.671
rtibia -19.4115
rfoot 15.9787 5.04172
rtoes 23.9479
lfemur 25.0938 9.53323 -12.8666
ltibia -7.79764
lfoot -26.6652 32.7133
ltoes 8.39855
513
root -1.30076 17.87 6.51995 9.00553 -54.1137 -13.3661
lowerback 6.71397 -7.39957 5.10871
upperback -3.39625 -9.1331 6.37512
thorax -7.07456 -4.61813 5.0764
lowerneck -15.944 13.2551 16.1746
upperneck 16.5629 16.7847 -11.4888
head 10.2766 7.73914 -4.02793
rclavicle 3.8763e-015 -1.11319e-014
rhumerus -15.1897 -20.2781 4.96455
rradius 138.647
rwrist -37.5563
rhand -0.173057 -33.2198
rfingers 7.12502
rthumb 25.4246 -61.5442
lclavicle 3.8763e-015 -1.11319e-014
lhumerus 4.67888 59.5794 53.1385
lradius 39.6262
lwrist 28.4304
lhand -13.7568 -23.5274
lfingers 7.12502
lthumb 12.3636 6.08699
rfemur 12.1787 13.3792 23.6649
rtibia -19.2932
rfoot 15.6208 4.9416
rtoes 23.7397
lfemur 25.1809 9.08128 -12.9272
ltibia -7.98589
lfoot -26.5229 32.8058
ltoes 8.40866
514
root -1.29577 17.8742 6.51584 8.77256 -53.6116 -13.1847
lowerback 6.66901 -7.30836 4.94739
upperback -3.37849 -9.03224 6.29934
thorax -7.01969 -4.56246 5.05837
lowerneck -15.8619 13.0894 16.0991
upperneck 16.7944 16.6007 -11.4725
head 10.3092 7.65357 -4.05203
rclavicle -7.7526e-015 1.59028e-014
rhumerus -15.0702 -19.4949 4.13985
rradius 138.769
rwrist -37.7426
rhand 0.885255 -33.0112
rfingers 7.12502
rthumb 26.438 -61.1873
lclavicle -7.7526e-015 1.59028e-014
lhumerus 6.31928 58.6765 54.7784
lradius 39.6013
lwrist 28.736
lhand -13.8596 -23.1908
lfingers 7.12502
lthumb 12.2645 6.42956
rfemur 12.225 13.1785 23.6482
rtibia -19.1669
rfoot 15.2374 4.89423
rtoes 23.184
lfemur 25.2036 8.60469 -13.0022
ltibia -8.15571
lfoot -26.3539 32.8959
ltoes 8.46074
515
root -1.29165 17.8802 6.51034 8.51718 -53.0848 -12.9353
lowerback 6.58864 -7.1945 4.6811
upperback -3.34817 -8.91443 6.23942
thorax -6.91281 -4.49474 5.1031
lowerneck -15.7862 12.9314 15.9688
upperneck 17.005 16.4268 -11.4111
head 10.3274 7.5736 -4.04998
rclavicle 1.0635e-014 -6.36111e-015
rhumerus -14.9769 -18.4864 3.17245
rradius 138.859
rwrist -37.5054
rhand 0.974691 -33.1776
rfingers 7.12502
rthumb 26.5236 -61.3408
lclavicle 1.0635e-014 -6.36111e-015
lhumerus 7.8784 57.6645 56.404
lradius 39.6329
lwrist 29.1128
lhand -14.0737 -22.6112
lfingers 7.12502
lthumb 12.058 7.02137
rfemur 12.2315 13.0746 23.5918
rtibia -19.0277
rfoot 14.8104 4.80322
rtoes 22.4502
lfemur 25.1979 8.10241 -13.1241
ltibia -8.35689
lfoot -26.1628 33.0375
ltoes 8.29935
516
root -1.28483 17.8869 6.50428 8.26614 -52.5316 -12.7055
lowerback 6.51592 -7.06059 4.4527
upperback -3.29897 -8.76591 6.17429
thorax -6.79913 -4.41362 5.11875
lowerneck -15.8045 12.7566 15.7097
upperneck 17.2453 16.2153 -11.2092
head 10.3421 7.47826 -3.98211
rclavicle -4.27387e-015 -2.06736e-014
rhumerus -14.9874 -17.1383 2.18831
rradius 138.983
rwrist -37.2591
rhand 1.94646 -33.5377
rfingers 7.12502
rthumb 27.4534 -61.557
lclavicle -4.27387e-015 -2.06736e-014
lhumerus 9.56417 56.7104 58.1885
lradius 39.698
lwrist 29.4841
lhand -14.2569 -21.7628
lfingers 7.12502
lthumb 11.8814 7.88007
rfemur 12.2332 13.0043 23.5494
rtibia -18.8702
rfoot 14.3981 4.68314
rtoes 21.8645
lfemur 25.2385 7.57382 -13.2318
ltibia -8.61593
lfoot -26.0374 33.1768
ltoes 8.3407
517
root -1.27537 17.8924 6.49748 8.00227 -51.9499 -12.5002
lowerback 6.50832 -6.93855 4.25065
upperback -3.26537 -8.62415 6.10539
thorax -6.74463 -4.33593 5.13038
lowerneck -15.7719 12.5766 15.4266
upperneck 17.4999 16.003 -10.9732
head 10.3482 7.38627 -3.90091
rclavicle -2.78299e-014 2.38542e-015
rhumerus -15.0792 -15.4373 1.14974
rradius 139.112
rwrist -36.8494
rhand 4.3082 -33.3221
rfingers 7.12502
rthumb 29.7099 -60.9615
lclavicle -2.78299e-014 2.38542e-015
lhumerus 11.212 55.7733 59.8616
lradius 39.6174
lwrist 29.819
lhand -14.4588 -21.0267
lfingers 7.12502
lthumb 11.6867 8.62731
rfemur 12.2512 12.9481 23.5256
rtibia -18.6689
rfoot 13.9104 4.55566
rtoes 21.35
lfemur 25.3534 7.02293 -13.3327
ltibia -8.98886
lfoot -25.7152 33.3963
ltoes 8.17707
518
root -1.26611 17.8966 6.48962 7.70021 -51.3512 -12.2726
lowerback 6.49782 -6.82932 4.02244
upperback -3.2268 -8.50257 6.03491
thorax -6.67915 -4.26735 5.15617
lowerneck -15.5762 12.411 15.3453
upperneck 17.6399 15.8404 -11.0155
head 10.3368 7.30898 -3.94534
rclavicle 2.96189e-014 -7.07673e-014
rhumerus -15.2196 -13.4565 -0.0459152
rradius 139.213
rwrist -36.1697
rhand 6.02675 -32.8122
rfingers 7.12502
rthumb 31.3488 -60.1466
lclavicle 2.96189e-014 -7.07673e-014
lhumerus 12.6655 54.8471 61.353
lradius 39.4744
lwrist 30.049
lhand -14.6851 -20.5141
lfingers 7.12502
lthumb 11.4685 9.15216
rfemur 12.2903 13.0632 23.5025
rtibia -18.4328
rfoot 13.2471 4.29543
rtoes 20.9264
lfemur 25.5178 6.458 -13.4618
ltibia -9.44569
lfoot -25.217 33.6848
ltoes 7.75687
519
root -1.25612 17.9005 6.48144 7.47245 -50.6845 -12.129
lowerback 6.45657 -6.7244 3.9012
upperback -3.16039 -8.38049 5.95788
thorax -6.58392 -4.20361 5.11125
lowerneck -15.4481 12.2694 15.2791
upperneck 17.7639 15.7049 -11.0937
head 10.3404 7.23853 -3.99599
rclavicle 8.74653e-015 6.44062e-014
rhumerus -15.4778 -11.5529 -1.27752
rradius 139.311
rwrist -35.9968
rhand 7.19859 -32.4927
rfingers 7.12502
rthumb 32.4647 -59.6043
lclavicle 8.74653e-015 6.44062e-014
lhumerus 14.0773 53.8869 62.7897
lradius 39.3239
lwrist 30.1889
lhand -14.7819 -20.1757
lfingers 7.12502
lthumb 11.3751 9.49578
rfemur 12.336 13.2501 23.5484
rtibia -18.2129
rfoot 12.5187 3.91216
rtoes 20.6457
lfemur 25.6423 5.8359 -13.5408
ltibia -9.86536
lfoot -24.7559 33.966
ltoes 7.1551
520
root -1.24439 17.9049 6.47408 7.1888 -49.9622 -11.9315
lowerback 6.44299 -6.61473 3.78859
upperback -3.07361 -8.25003 5.87303
thorax -6.48585 -4.13598 5.05497
lowerneck -15.6803 12.1094 15.1804
upperneck 18.1499 15.5066 -11.0997
head 10.4854 7.1269 -4.01138
rclavicle 7.25564e-015 -4.92986e-014
rhumerus -15.7258 -9.66531 -2.55414
rradius 139.311
rwrist -36.299
rhand 8.29061 -32.1635
rfingers 7.12502
rthumb 33.5033 -59.0561
lclavicle 7.25564e-015 -4.92986e-014
lhumerus 15.5659 52.9097 64.3188
lradius 39.1421
lwrist 30.2181
lhand -14.8112 -19.9851
lfingers 7.12502
lthumb 11.3468 9.68795
rfemur 12.4165 13.2757 23.5496
rtibia -18.0331
rfoot 11.8872 3.60531
rtoes 20.267
lfemur 25.721 5.15784 -13.6627
ltibia -10.199
lfoot -24.3354 34.2547
ltoes 6.20349
521
root -1.23258 17.9109 6.46513 6.79713 -49.2259 -11.5759
lowerback 6.45213 -6.49741 3.53993
upperback -3.0065 -8.11896 5.79064
thorax -6.40211 -4.06236 5.07963
lowerneck -15.9234 11.9094 15.0172
upperneck 18.4874 15.2517 -11.0646
head 10.5981 6.9897 -4.01364
rclavicle 7.30534e-014 -5.48646e-014
rhumerus -16.0353 -7.64313 -3.69872
rradius 139.242
rwrist -36.3466
rhand 8.63286 -31.8206
rfingers 7.12502
rthumb 33.8285 -58.6422
lclavicle 7.30534e-014 -5.48646e-014
lhumerus 17.031 51.966 65.9148
lradius 38.9957
lwrist 30.2612
lhand -14.9424 -19.7274
lfingers 7.12502
lthumb 11.2203 9.95251
rfemur 12.4856 13.199 23.4276
rtibia -17.8708
rfoot 11.3267 3.38816
rtoes 19.6286
lfemur 25.7597 4.85244 -13.7138
ltibia -10.4833
lfoot -23.7214 34.1266
ltoes 5.33466
522
root -1.22045 17.9167 6.45543 6.40864 -48.444 -11.1812
lowerback 6.44495 -6.39546 3.28191
upperback -2.95711 -8.01 5.68962
thorax -6.3289 -3.99948 5.09256
lowerneck -15.7837 11.7317 14.6706
upperneck 18.504 15.0608 -10.8736
head 10.5034 6.90466 -3.93699
rclavicle -8.85586e-014 5.56597e-015
rhumerus -16.6033 -5.63397 -4.75079
rradius 139.293
rwrist -36.1716
rhand 8.43655 -31.6099
rfingers 7.12502
rthumb 33.642 -58.4724
lclavicle -8.85586e-014 5.56597e-015
lhumerus 18.4006 51.0141 67.3986
lradius 38.8874
lwrist 30.4615
lhand -15.1403 -19.2591
lfingers 7.12502
lthumb 11.0294 10.4312
rfemur 12.5018 13.1337 23.2669
rtibia -17.6621
rfoot 10.7196 3.13736
rtoes 18.8458
lfemur 25.7811 4.58117 -13.7755
ltibia -10.8235
lfoot -23.0797 33.8991
ltoes 4.74889
523
root -1.20674 17.9207 6.44686 6.10172 -47.611 -10.9016
lowerback 6.12995 -6.30484 3.31266
upperback -2.7059 -7.92469 5.4296
thorax -5.9278 -3.96652 4.72432
lowerneck -15.6279 11.5969 14.4877
upperneck 18.3624 14.8684 -10.6564
head 10.3614 6.83534 -3.87535
rclavicle 1.06847e-014 7.15625e-015
rhumerus -17.3877 -3.86523 -6.38451
rradius 139.326
rwrist -35.9043
rhand 8.8056 -31.1933
rfingers 7.12502
rthumb 33.9926 -57.9787
lclavicle 1.06847e-014 7.15625e-015
lhumerus 20.2006 49.996 68.9515
lradius 38.7362
lwrist 30.7023
lhand -15.3589 -18.6995
lfingers 7.12502
lthumb 10.8186 11.0018
rfemur 12.4567 13.0503 23.1809
rtibia -17.3071
rfoot 10.0528 2.88593
rtoes 18.2092
lfemur 25.9278 4.19431 -13.7856
ltibia -11.3873
lfoot -22.5129 33.6988
ltoes 4.62066
